<?xml version="1.0" standalone="no"?>
<!DOCTYPE svg PUBLIC "-//W3C//DTD SVG 20010904//EN"
 "http://www.w3.org/TR/2001/REC-SVG-20010904/DTD/svg10.dtd">
<svg version="1.0" xmlns="http://www.w3.org/2000/svg"
 width="300.000000pt" height="142.000000pt" viewBox="0 0 300.000000 142.000000"
 preserveAspectRatio="xMidYMid meet">

<g transform="translate(0.000000,142.000000) scale(0.100000,-0.100000)"
fill="#000000" stroke="none">
<path d="M1220 1148 l0 -273 140 -73 140 -74 135 73 135 73 0 273 0 273 -275
0 -275 0 0 -272z m510 -11 l0 -233 -107 -58 c-59 -31 -114 -58 -123 -59 -8 0
-63 25 -122 57 l-108 58 0 234 0 234 230 0 230 0 0 -233z"/>
<path d="M1310 1210 l0 -120 140 0 140 0 0 -58 0 -59 -49 -23 -49 -23 -44 24
c-32 18 -44 31 -46 52 -3 26 -6 28 -45 25 l-42 -3 -3 -47 -3 -48 95 -47 96
-47 90 44 90 44 0 203 0 203 -185 0 -185 0 0 -120z m288 -2 l-3 -33 -97 -3
-98 -3 0 36 0 35 101 0 100 0 -3 -32z"/>
<path d="M105 444 c-47 -69 -88 -130 -91 -137 -3 -9 10 -11 44 -9 41 3 51 8
66 33 17 29 18 29 111 29 92 0 94 -1 114 -29 18 -24 29 -30 71 -33 39 -2 49 0
45 10 -3 7 -44 69 -92 138 l-87 124 -47 0 -48 0 -86 -126z m164 16 l31 -50
-60 0 c-33 0 -60 3 -60 6 0 6 53 94 57 94 1 0 15 -22 32 -50z"/>
<path d="M590 559 c-98 -19 -111 -121 -18 -144 15 -4 78 -10 140 -13 103 -6
113 -9 113 -27 0 -27 -30 -33 -172 -34 -116 -1 -123 -2 -123 -21 0 -19 7 -20
165 -20 126 0 173 4 194 15 49 25 56 82 15 114 -24 18 -41 21 -141 21 -116 0
-153 9 -153 36 0 25 46 34 176 34 l124 0 0 25 0 25 -137 -1 c-76 -1 -158 -5
-183 -10z"/>
<path d="M990 435 l0 -135 50 0 50 0 0 45 0 45 104 0 c148 0 206 25 206 89 0
67 -77 91 -287 91 l-123 0 0 -135z m270 76 c14 -4 27 -15 29 -26 6 -32 -27
-45 -116 -45 l-83 0 0 40 0 40 73 -1 c39 -1 83 -4 97 -8z"/>
<path d="M1460 435 l0 -135 49 0 50 0 3 53 3 52 98 3 97 3 0 -56 0 -55 55 0
56 0 -3 133 -3 132 -52 3 -53 3 0 -55 0 -56 -100 0 -100 0 0 55 0 55 -50 0
-50 0 0 -135z"/>
<path d="M1996 444 c-48 -70 -90 -132 -92 -138 -3 -7 11 -10 44 -8 41 3 51 8
66 33 17 29 18 29 114 29 96 0 97 0 113 -29 15 -25 24 -29 68 -32 41 -3 50 -1
46 10 -3 7 -44 69 -92 137 l-86 124 -47 0 -47 0 -87 -126z m178 -6 l17 -28
-60 0 c-34 0 -61 2 -61 5 0 2 12 25 27 50 28 45 28 45 44 23 9 -12 24 -34 33
-50z"/>
<path d="M2380 469 c0 -55 5 -109 10 -120 21 -37 63 -49 180 -49 103 0 110 1
110 20 0 18 -7 20 -85 20 -118 0 -125 8 -125 135 l0 95 -45 0 -45 0 0 -101z"/>
<path d="M2620 545 c0 -24 2 -25 70 -25 l70 0 0 -110 0 -110 48 0 47 0 0 107
0 108 73 3 c69 3 73 4 70 25 -3 22 -6 22 -190 25 l-188 2 0 -25z"/>
<path d="M550 103 c0 -61 10 -81 42 -92 39 -14 148 -14 148 -1 0 6 -21 10 -46
10 -70 0 -84 12 -84 70 0 49 -1 50 -30 50 -28 0 -30 -2 -30 -37z"/>
<path d="M760 70 l0 -70 115 0 c70 0 115 4 115 10 0 6 -35 10 -85 10 -78 0
-85 2 -85 20 0 18 7 20 75 20 43 0 75 4 75 10 0 6 -32 10 -75 10 -68 0 -75 2
-75 20 0 18 7 20 85 20 50 0 85 4 85 10 0 6 -45 10 -115 10 l-115 0 0 -70z"/>
<path d="M1081 131 c-13 -3 -33 -19 -44 -33 -17 -23 -19 -32 -9 -52 14 -32 64
-46 170 -46 l82 0 0 40 0 40 -70 0 c-40 0 -70 -4 -70 -10 0 -5 18 -10 40 -10
29 0 40 -4 40 -15 0 -23 -26 -29 -79 -19 -39 8 -46 13 -49 34 -4 46 11 55 103
59 47 1 85 7 85 12 0 10 -163 10 -199 0z"/>
<path d="M1310 70 l0 -70 115 0 c132 0 159 18 33 22 -70 3 -83 6 -86 21 -3 15
6 17 72 17 97 0 100 18 4 22 -57 2 -73 6 -73 18 0 12 17 16 83 18 125 4 100
22 -33 22 l-115 0 0 -70z"/>
<path d="M1590 70 l0 -70 30 0 c29 0 30 1 30 50 0 28 3 50 6 50 3 0 31 -22 61
-50 43 -40 62 -50 89 -50 l34 0 0 70 0 70 -30 0 c-29 0 -30 -2 -30 -45 0 -25
-3 -45 -6 -45 -3 0 -29 20 -56 45 -41 37 -57 45 -89 45 l-39 0 0 -70z"/>
<path d="M1900 70 l0 -70 83 0 c105 0 155 14 169 46 10 20 8 29 -9 52 -25 34
-48 40 -155 41 l-88 1 0 -70z m164 40 c20 -7 26 -17 26 -39 0 -39 -26 -53 -88
-49 -45 3 -47 4 -50 36 -2 19 -1 40 2 48 6 16 72 19 110 4z"/>
<path d="M2211 127 c-31 -16 -36 -31 -16 -51 12 -12 36 -16 93 -16 75 0 114
-11 98 -27 -4 -4 -50 -10 -102 -11 -52 -2 -94 -8 -94 -13 0 -5 46 -9 103 -9
131 0 182 23 142 64 -13 12 -36 16 -100 16 -46 0 -86 4 -90 9 -11 18 34 31
109 31 44 0 76 4 76 10 0 15 -190 12 -219 -3z"/>
</g>
</svg>
